<?xml version="1.0" encoding="utf-8"?>
<!-- Generator: Adobe Illustrator 17.1.0, SVG Export Plug-In . SVG Version: 6.00 Build 0)  -->
<!DOCTYPE svg PUBLIC "-//W3C//DTD SVG 1.1//EN" "http://www.w3.org/Graphics/SVG/1.1/DTD/svg11.dtd">
<svg version="1.1" id="Calque_1" xmlns="http://www.w3.org/2000/svg" xmlns:xlink="http://www.w3.org/1999/xlink" x="0px" y="0px"
	 viewBox="348 0 265 263.4" enable-background="new 348 0 265 263.4" xml:space="preserve">
<path fill="#EAEAEA" d="M611.3,251.4c0,6.6-5.4,12-12,12H368.7c-6.6,0-12-5.4-12-12v-231c0-6.6,5.4-12,12-12h230.6
	c6.6,0,12,5.4,12,12V251.4"/>
<path fill="#FFFFFF" d="M443,255c8.5-15,16.9-30,25.4-44.9c0.8-1.4,2.2-3.2,3.7-3.6c10.7-3,15.9-11.5,21-20.4
	c5.3-9.2,10.6-18.5,16.6-27.2c10-14.5,8.5-29,0.6-43.4c-8.1-14.9-20.9-22.9-38.2-22.8c-8.9,0.1-17.7,0-26.6,0c-9.6,0-19.3,0-28.7,0
	c-1.4-16.2-1-16.6,13.3-16.6c44.6,0,89.3,0,133.9,0c3,0,6.1-0.3,9.1-0.4c-2-2.7-4.2-3.8-6.6-4.3c-43.3-9.2-86.7-18.3-130-27.4
	c-25-5.3-54.8,14.8-60.8,41.9c5.3-5.1,9.8-9.4,15.6-15c0,8.7,0,15.4,0,22.1c0,17.6,6.4,24.1,23.9,24.1c16.9,0,33.7-0.2,50.6,0.1
	c14.5,0.3,22.9,9.9,21.3,23.4c-1.5,12.5-12.4,19.9-26,17c-4.8-1-9.3-3.2-15.4-5.4c9.2,20.9,2,38.1-8.3,55.1
	c-9.3,15.5-17.7,31.6-26.4,47.5h-10.6c11.4-21.1,23.2-42.1,34.1-63.5c11.5-22.4,2.6-48.7-20-61.7c-21.2-12.2-44.4-6.5-58.9,14.6
	c-2.3,3.3-4.6,6.6-6.9,9.9V12.7c0-3.4,1.4-6.5,3.6-8.8c-2.4,2.3-3.9,5.5-3.9,9.1v229.6c0,7,5.7,12.7,12.7,12.7
	c0,0,236-1.5,238.4-3.9c-2.3,2.2-5.4,3.6-8.8,3.6L443,255L443,255z"/>
<path fill="#26AAE0" d="M590.6,0H361.4c-3.6,0-6.8,1.5-9.1,3.9c-2.2,2.3-3.6,5.4-3.6,8.8v141.6c2.3-3.3,4.7-6.6,6.9-9.9
	c14.5-21.1,37.7-26.8,58.9-14.6c22.6,13,31.5,39.4,20,61.7c-11,21.4-22.7,42.3-34.1,63.5H411c8.8-15.9,17.1-32,26.4-47.5
	c10.2-17,17.5-34.2,8.3-55.1c6.2,2.2,10.7,4.4,15.4,5.4c13.6,2.9,24.5-4.5,26-17c1.6-13.5-6.9-23.1-21.3-23.4
	c-16.8-0.3-33.7-0.1-50.6-0.1c-17.5,0-23.9-6.5-23.9-24.1c0-6.7,0-13.4,0-22.1c-5.8,5.6-10.3,9.9-15.6,15
	c5.9-27.2,35.8-47.2,60.8-41.9c43.3,9.1,86.7,18.2,130,27.4c2.3,0.5,4.6,1.5,6.6,4.3c-3,0.2-6.1,0.4-9.1,0.4c-44.6,0-89.3,0-133.9,0
	c-14.4,0-14.8,0.5-13.3,16.6c9.5,0,19.1,0,28.7,0c8.9,0,17.7,0.1,26.6,0c17.3-0.1,30.1,7.8,38.2,22.8c7.9,14.4,9.4,28.9-0.6,43.4
	c-6,8.7-11.3,18-16.6,27.2c-5.1,8.8-10.3,17.3-21,20.4c-1.5,0.4-2.8,2.1-3.7,3.6c-8.5,14.9-17,29.9-25.4,44.9h147.6
	c3.4,0,6.5-1.4,8.8-3.6c2.4-2.3,3.9-5.5,3.9-9.1V12.7C603.3,5.7,597.6,0,590.6,0"/>
</svg>
