<?xml version="1.0" encoding="UTF-8" standalone="no"?>
<!-- Generator: Adobe Illustrator 17.0.0, SVG Export Plug-In . SVG Version: 6.00 Build 0)  -->

<svg
   xmlns:dc="http://purl.org/dc/elements/1.1/"
   xmlns:cc="http://creativecommons.org/ns#"
   xmlns:rdf="http://www.w3.org/1999/02/22-rdf-syntax-ns#"
   xmlns:svg="http://www.w3.org/2000/svg"
   xmlns="http://www.w3.org/2000/svg"
   xmlns:sodipodi="http://sodipodi.sourceforge.net/DTD/sodipodi-0.dtd"
   xmlns:inkscape="http://www.inkscape.org/namespaces/inkscape"
   version="1.1"
   id="Calque_1"
   x="0px"
   y="0px"
   width="225.27431"
   height="212.22351"
   viewBox="0 0 220 200"
   enable-background="new 0 0 262.619 263.444"
   xml:space="preserve"
   inkscape:version="0.48.4 r9939"
   sodipodi:docname="anyfetch_icon.svg"><metadata
     id="metadata15"><rdf:RDF><cc:Work
         rdf:about=""><dc:format>image/svg+xml</dc:format><dc:type
           rdf:resource="http://purl.org/dc/dcmitype/StillImage" /><dc:title></dc:title></cc:Work></rdf:RDF></metadata><defs
     id="defs13" /><sodipodi:namedview
     pagecolor="#ffffff"
     bordercolor="#666666"
     borderopacity="1"
     objecttolerance="10"
     gridtolerance="10"
     guidetolerance="10"
     inkscape:pageopacity="0"
     inkscape:pageshadow="2"
     inkscape:window-width="1614"
     inkscape:window-height="1030"
     id="namedview11"
     showgrid="false"
     fit-margin-top="0"
     fit-margin-left="0"
     fit-margin-right="0"
     fit-margin-bottom="0"
     inkscape:zoom="1.7916521"
     inkscape:cx="231.45979"
     inkscape:cy="96.755427"
     inkscape:window-x="1363"
     inkscape:window-y="-3"
     inkscape:window-maximized="1"
     inkscape:current-layer="g3" /><g
     id="g3"
     transform="translate(-21.535429,-34.707329)"><path
       d="m 151.70442,246.59884 c -8.456,-14.99 -16.881,-29.997 -25.42299,-44.937 -0.826,-1.445 -2.206,-3.154 -3.66,-3.565 -10.737,-3.032 -15.925,-11.528 -21.018,-20.357 -5.313001,-9.209 -10.556001,-18.507 -16.589001,-27.243 -10.028,-14.522 -8.499,-29.029 -0.64,-43.431 8.15,-14.934002 20.887001,-22.879002 38.236001,-22.761002 8.86899,0.06 17.73799,0.01 26.60699,0.01 9.633,0 19.266,0 28.723,0 1.425,-16.186999 1.027,-16.645999 -13.342,-16.646999 -44.64099,-0.004 -89.281991,0.007 -133.922991,-0.021 -3.047,-0.002 -6.093,-0.281 -9.14,-0.431 2.014,-2.72 4.241,-3.77 6.584,-4.266 43.322,-9.171 86.661001,-18.267001 129.990991,-27.400001 24.964,-5.261 54.84499,14.767001 60.77899,41.937 -5.3,-5.067 -9.795,-9.363999 -15.64,-14.951999 0,8.691999 0.005,15.407999 -0.001,22.122999 -0.014,17.636002 -6.416,24.121002 -23.87499,24.142002 -16.851,0.021 -33.708,-0.247 -50.552,0.095 -14.46699,0.294 -22.90899,9.914 -21.31799,23.435 1.477,12.548 12.426,19.918 26.02599,17.044 4.752,-1.004 9.256,-3.186 15.424,-5.381 -9.174,20.937 -1.953,38.099 8.283,55.114 9.333,15.514 17.661,31.632 26.417,47.493 l 10.65,0 c -11.421,-21.14 -23.19,-42.101 -34.146,-63.479 -11.462,-22.365 -2.594,-48.672 20.04,-61.726 21.20799,-12.231 44.42999,-6.472 58.885,14.59 2.287,3.332 4.624,6.629 6.938,9.942 l 0.78933,-0.31205 c -0.47434,44.00459 -0.45833,-19.56695 -0.45833,88.62005 0,7.011 -5.685,12.696 -12.696,12.696 -50.15205,-3.79444 62.06303,1.25874 -81.951,-0.332 z"
       id="path7"
       inkscape:connector-curvature="0"
       style="fill:#ffffff"
       sodipodi:nodetypes="cccccccsccccscccccccccsccsccccccc" /></g></svg>