<?xml version="1.0" encoding="UTF-8" standalone="no"?>
<!-- Created with Inkscape (http://www.inkscape.org/) -->

<svg
   xmlns:dc="http://purl.org/dc/elements/1.1/"
   xmlns:cc="http://creativecommons.org/ns#"
   xmlns:rdf="http://www.w3.org/1999/02/22-rdf-syntax-ns#"
   xmlns:svg="http://www.w3.org/2000/svg"
   xmlns="http://www.w3.org/2000/svg"
   xmlns:sodipodi="http://sodipodi.sourceforge.net/DTD/sodipodi-0.dtd"
   xmlns:inkscape="http://www.inkscape.org/namespaces/inkscape"
   width="1700"
   height="500.07721"
   id="svg2"
   version="1.1"
   inkscape:version="0.48.4 r9939"
   sodipodi:docname="New document 1">
  <defs
     id="defs4" />
  <sodipodi:namedview
     id="base"
     pagecolor="#ffffff"
     bordercolor="#666666"
     borderopacity="1.0"
     inkscape:pageopacity="0.0"
     inkscape:pageshadow="2"
     inkscape:zoom="0.35"
     inkscape:cx="520.9183"
     inkscape:cy="1.6481801"
     inkscape:document-units="px"
     inkscape:current-layer="layer1"
     showgrid="false"
     inkscape:window-width="1614"
     inkscape:window-height="1030"
     inkscape:window-x="1363"
     inkscape:window-y="-3"
     inkscape:window-maximized="1"
     fit-margin-top="0"
     fit-margin-left="0"
     fit-margin-right="0"
     fit-margin-bottom="0" />
  <metadata
     id="metadata7">
    <rdf:RDF>
      <cc:Work
         rdf:about="">
        <dc:format>image/svg+xml</dc:format>
        <dc:type
           rdf:resource="http://purl.org/dc/dcmitype/StillImage" />
        <dc:title></dc:title>
      </cc:Work>
    </rdf:RDF>
  </metadata>
  <g
     inkscape:label="Layer 1"
     inkscape:groupmode="layer"
     id="layer1"
     transform="translate(1298.5715,-779.5046)">
    <g
       id="g2998"
       transform="translate(-931.42857,-760)">
      <path
         style="fill:#2db0e6"
         d="m -367.14288,1789.505 0,-250 850,0 849.99998,0 0,250 0,250 -849.99998,0 -850,0 0,-250 z"
         id="path3014"
         inkscape:connector-curvature="0" />
      <path
         style="fill:#2caee4"
         d="m -367.14288,1789.505 0,-250 289.5,0 c 159.225,0 289.5,0.2217 289.5,0.4927 0,0.7753 -12.05452,13.6368 -45.54926,48.5983 -17.0771,17.825 -36.62111,38.259 -43.43116,45.409 -6.81004,7.15 -26.36287,27.5697 -43.45073,45.3771 -17.08787,17.8074 -34.89385,36.6877 -39.56885,41.9562 -12.01563,13.541 -73.63733,78.1272 -89.36744,93.6667 -7.23769,7.15 -27.32839,27.8432 -44.646,45.985 -17.31761,18.1417 -40.71156,42.6184 -51.98656,54.3928 -11.275,11.7743 -26.53115,27.756 -33.90255,35.515 -21.70192,22.8429 -54.39808,56.9637 -70.2944,73.3572 l -14.78749,15.25 -51.00778,0 -51.00778,0 0,-250 z m 188.03571,248.6477 c 0.80536,-0.7437 40.83929,-21.7456 88.96429,-46.6709 48.125,-24.9252 88.85,-46.2995 90.5,-47.4982 3.73962,-2.717 61.17447,-32.4786 62.67814,-32.4786 0.60435,0 8.34901,-3.7759 17.21034,-8.3909 8.86134,-4.6149 51.66152,-26.8357 95.11152,-49.3795 218.70268,-113.4726 294.78569,-152.9407 346,-179.488 30.8,-15.9653 56.9,-29.8015 58,-30.747 2.69844,-2.3196 192.2997,-100.5866 197.719,-102.4743 3.7537,-1.3075 38.2475,-1.493 280.03098,-1.5057 l 275.75,-0.015 0,250 0,250 -756.71427,0 c -635.94859,0 -756.48059,-0.2158 -755.25,-1.3523 z"
         id="path3012"
         inkscape:connector-curvature="0" />
      <path
         style="fill:#2cace1"
         d="m -367.14288,1789.505 0,-250 289.15483,0 289.15484,0 -9.91857,10.25 c -5.45521,5.6375 -38.90751,40.625 -74.33844,77.75 -35.43092,37.125 -69.885,73.125 -76.5646,80 -6.67961,6.875 -13.51363,14.3995 -15.18671,16.721 -4.03971,5.6055 -62.72379,67.0607 -85.73074,89.779 -17.43655,17.2178 -210.10283,218.1849 -213.90402,223.1198 l -1.8334,2.3802 -50.4166,0 -50.41659,0 0,-250 z m 189.08333,249.649 c 0.22917,-0.193 7.61667,-4.0758 16.41667,-8.6284 18.09605,-9.3618 37.80037,-19.5877 54,-28.0243 6.05,-3.1508 18.2,-9.4471 27,-13.9918 8.8,-4.5447 20.05,-10.3966 25,-13.0043 4.95,-2.6076 17.775,-9.2681 28.5,-14.8012 25.57011,-13.1917 23.85125,-12.2555 29,-15.7961 5.7924,-3.9832 57.31965,-30.5623 62.00398,-31.9833 1.95887,-0.5942 7.82183,-3.3458 13.0288,-6.1148 5.20697,-2.7689 17.11722,-8.9815 26.46722,-13.8057 9.35,-4.8243 21.5,-11.1236 27,-13.9985 5.5,-2.875 16.75,-8.7213 25,-12.9918 8.25,-4.2705 20.4,-10.5719 27,-14.003 15.88648,-8.2589 36.86477,-19.1425 80.25,-41.634 7.5625,-3.9205 19.15,-9.9339 25.75,-13.363 6.6,-3.4292 18.75,-9.7325 27,-14.0075 8.25,-4.2749 20.625,-10.6961 27.5,-14.2692 22.22279,-11.5498 36.1876,-18.7989 51.5,-26.7334 8.25,-4.2749 20.4,-10.5783 27,-14.0075 6.6,-3.4291 18.3,-9.5027 26,-13.4967 7.7,-3.994 19.4,-10.0692 26,-13.5003 6.6,-3.4311 18.75,-9.7302 27,-13.998 8.25,-4.2677 19.05,-9.8879 24,-12.4892 4.95,-2.6013 18,-9.3576 29,-15.0139 11,-5.6563 22.925,-12.1721 26.5,-14.4795 3.575,-2.3074 46.15615,-24.7306 94.6248,-49.8294 48.4686,-25.0988 92.4473,-47.8954 97.7303,-50.6592 l 9.6056,-5.025 275.51958,0 275.5197,0 0,250 0,250 -755.66665,0 c -415.61666,0 -755.47916,-0.1579 -755.25,-0.351 z"
         id="path3010"
         inkscape:connector-curvature="0" />
      <path
         style="fill:#2aace0"
         d="m 37.81976,2038.2232 c -0.84555,-0.67 -5.53091,-10.8932 -10.41192,-22.7182 -4.88101,-11.825 -13.07089,-31.625 -18.19973,-44 -5.12884,-12.375 -9.33097,-23.1924 -9.33807,-24.0387 -0.007,-0.8463 2.34958,-2.9369 5.23708,-4.6457 10.27809,-6.0827 56.14233,-29.3156 57.87201,-29.3156 0.96798,0 2.08454,0.5252 2.48126,1.1671 1.05645,1.7094 19.24093,122.0753 18.6682,123.5678 -0.68265,1.779 -44.06243,1.7633 -46.30883,-0.017 z m 720.00956,0 c -0.8403,-0.67 -17.2213,-35.6432 -36.4022,-77.7182 -19.181,-42.075 -39.7078,-87.075 -45.6152,-100 -5.9074,-12.925 -27.2589,-59.725 -47.4478,-104 -20.18888,-44.275 -39.67132,-86.9536 -43.29431,-94.8413 -5.11124,-11.1278 -6.35524,-14.713 -5.55179,-16 0.86109,-1.3793 49.95511,-27.1553 185.1296,-97.1992 l 17.2905,-8.9595 275.45948,0 275.4595,0 0,136.8464 c 0,119.3478 -0.1909,137.229 -1.4929,139.8389 -0.8211,1.6459 -5.8852,8.1275 -11.2536,14.4036 -5.3684,6.2761 -19.8841,23.3039 -32.2571,37.8396 -61.3095,72.0256 -101.2776,119.005 -121.3535,142.6419 -12.1786,14.3387 -23.2451,26.6012 -24.5923,27.25 -3.6151,1.7411 -381.89288,1.6404 -384.07838,-0.1022 z M -54.97063,1815.2126 c -0.58995,-0.7109 -15.30545,-35.6984 -32.70109,-77.75 -40.63892,-98.2392 -52.91586,-127.8622 -67.74323,-163.4576 -6.64402,-15.95 -12.18099,-30.2375 -12.30437,-31.75 l -0.22433,-2.75 87.47181,0 c 68.64856,0 87.73902,0.269 88.71349,1.25 0.68293,0.6875 1.75755,4.85 2.38807,9.25 0.63051,4.4 6.37575,42.2 12.76718,84 6.39144,41.8 11.86932,78.7881 12.17307,82.1957 0.44668,5.0113 0.19237,6.7538 -1.33029,9.1145 -2.32288,3.6014 -86.20042,91.1898 -87.32635,91.1898 -0.44622,0 -1.29401,-0.5816 -1.88396,-1.2924 z"
         id="path3008"
         inkscape:connector-curvature="0" />
      <path
         style="fill:#29aae0"
         d="m 37.10403,2035.255 c -1.08535,-2.3375 -9.73826,-23.0396 -19.22869,-46.0047 -13.73577,-33.238 -17.0156,-42.0435 -16.07995,-43.1709 1.6463,-1.9837 58.77221,-31.5744 60.95546,-31.5744 2.11195,0 1.67624,-2.3065 10.10627,53.5 6.89283,45.6303 7.85223,51.8961 9.1003,59.4337 0.49483,2.9885 0.8997,6.926 0.8997,8.75 l 0,3.3163 -21.88987,0 -21.88988,0 -1.97334,-4.25 z m 719.41869,-0.9974 c -1.3651,-2.8889 -11.9199,-25.9526 -23.4552,-51.2526 -11.5352,-25.3 -33.9088,-74.35 -49.719,-109 -15.8103,-34.65 -38.2927,-83.925 -49.9609,-109.5 -11.66815,-25.575 -28.56471,-62.6051 -37.54787,-82.2891 -14.00951,-30.6978 -16.13026,-35.9802 -14.90782,-37.1325 0.78386,-0.7389 44.62519,-23.7214 97.42519,-51.0724 52.8,-27.3509 97.9692,-50.8037 100.376,-52.1174 l 4.3759,-2.3886 274.87408,0 274.874,0 0,136.7775 c 0,119.9825 -0.1842,137.0405 -1.5005,138.9198 -1.6441,2.3473 -5.935,7.3996 -158.224,186.3027 l -31.9214,37.5 -191.10318,0.2526 -191.1032,0.2525 -2.4821,-5.2525 z m -867.43471,-356.0312 c -30.94801,-74.9218 -56.26051,-136.7839 -56.25,-137.4714 0.0151,-0.9903 18.07171,-1.25 86.89779,-1.25 l 86.87868,0 1.03958,2.75 c 0.57176,1.5125 1.99545,9.275 3.16374,17.25 1.16829,7.975 2.99637,20.125 4.0624,27 1.06602,6.875 4.19926,27.575 6.96274,46 2.76349,18.425 5.43816,35.975 5.94372,39 3.80787,22.7841 7.27069,49.0661 6.7422,51.1718 -0.35015,1.3951 -6.83203,9.0603 -14.40419,17.0338 -49.3306,51.9454 -71.67128,74.7908 -73.11415,74.7658 -1.24742,-0.022 -15.46986,-33.4767 -57.92251,-136.25 z"
         id="path3006"
         inkscape:connector-curvature="0" />
      <path
         style="fill:#28aadf"
         d="M 20.07338,1993.2973 C 6.5629,1960.6403 1.2522,1946.7339 1.96385,1945.8764 c 1.69579,-2.0433 59.0726,-31.4835 60.73508,-31.1633 1.5084,0.2904 2.92458,8.0959 9.12474,50.2919 0.64652,4.4 1.55605,10.25 2.02118,13 0.46513,2.75 1.34895,8.375 1.96404,12.5 0.6151,4.125 2.45258,16.1938 4.08329,26.8196 1.63072,10.6258 2.96494,19.9633 2.96494,20.75 0,1.1969 -3.56465,1.4304 -21.83364,1.4304 l -21.83363,0 -19.11647,-46.2077 z m 695.83004,-49.0447 c -23.8996,-52.3862 -64.0452,-140.3724 -89.21249,-195.525 -25.16729,-55.1525 -45.8881,-101.0345 -46.04626,-101.96 -0.31143,-1.8225 -6.13616,1.2861 129.35975,-69.0385 l 73.6474,-38.2241 274.60258,0 274.6027,0 0,136.8162 0,136.8162 -70.6036,82.9338 c -38.8321,45.6136 -82.1446,96.5225 -96.25,113.1308 l -25.6464,30.197 -190.49998,0.051 -190.5,0.051 -43.4537,-95.2475 z M -54.43129,1813.255 c -0.27631,-0.6875 -25.58174,-61.775 -56.2343,-135.75 -30.65255,-73.975 -55.95211,-135.2875 -56.22123,-136.25 -0.46332,-1.657 4.13614,-1.75 86.55992,-1.75 82.04154,0 87.07882,0.1007 87.56331,1.75 0.28274,0.9625 0.78381,3.55 1.11348,5.75 1.366,9.1157 4.07168,26.7322 5.49076,35.75 0.54094,3.4375 2.34835,15.475 4.01647,26.75 1.66812,11.275 3.47553,23.3125 4.01647,26.75 0.54094,3.4375 1.43353,9.175 1.98353,12.75 0.55,3.575 1.44371,9.3125 1.98602,12.75 6.87689,43.5898 8.99118,59.6798 8.13728,61.9257 -0.51678,1.3592 -6.94343,8.7819 -14.28145,16.4947 -49.39533,51.9188 -71.20372,74.3296 -72.33146,74.3296 -0.71303,0 -1.52249,-0.5625 -1.7988,-1.25 z"
         id="path3004"
         inkscape:connector-curvature="0" />
      <path
         style="fill:#25aae0"
         d="m 34.55967,2025.755 c -3.08517,-7.5625 -8.59418,-20.95 -12.24225,-29.75 -17.20261,-41.4967 -20.453,-49.7028 -19.98624,-50.458 0.9148,-1.4802 58.80313,-31.1496 59.9315,-30.7166 0.60873,0.2336 2.16108,7.5684 3.44967,16.2997 1.28859,8.7312 4.31405,28.7253 6.72325,44.4313 5.82062,37.9457 9.42152,62.0618 9.42152,63.0982 0,0.465 -9.37981,0.8454 -20.84402,0.8454 l -20.84403,0 -5.6094,-13.75 z m 717.06135,-5.5 c -4.7836,-10.5875 -15.2802,-33.65 -23.3259,-51.25 -8.0457,-17.6 -20.1643,-44.15 -26.9302,-59 -6.7659,-14.85 -19.6005,-42.975 -28.5215,-62.5 -8.9209,-19.525 -20.6177,-45.175 -25.9928,-57 -5.3751,-11.825 -14.81917,-32.525 -20.98689,-46 -6.16772,-13.475 -16.75049,-36.65 -23.51727,-51.5 -6.76677,-14.85 -14.1451,-30.9823 -16.39628,-35.8496 -2.25119,-4.8672 -4.09306,-9.5119 -4.09306,-10.3214 0,-2.4221 2.32896,-4.066 13.17062,-9.2961 5.68116,-2.7406 10.84393,-5.4171 11.47282,-5.9478 0.6289,-0.5307 1.4164,-0.6919 1.75,-0.3583 0.33361,0.3336 0.60656,0.055 0.60656,-0.6191 0,-0.6742 0.45,-0.9476 1,-0.6077 0.55,0.3399 1,0.2012 1,-0.3083 0,-0.5096 5.175,-3.3346 11.5,-6.2779 6.325,-2.9433 11.5,-5.7296 11.5,-6.1917 0,-0.4621 0.45,-0.562 1,-0.2221 0.55,0.3399 1,0.1149 1,-0.5 0,-0.6149 0.45,-0.8399 1,-0.5 0.55,0.3399 1,0.2012 1,-0.3083 0,-0.5096 5.175,-3.3346 11.5,-6.2779 6.325,-2.9433 11.5,-5.7296 11.5,-6.1917 0,-0.4621 0.45,-0.562 1,-0.2221 0.55,0.3399 1,0.1149 1,-0.5 0,-0.6149 0.45,-0.8399 1,-0.5 0.55,0.3399 1,0.2012 1,-0.3083 0,-0.5096 5.175,-3.3346 11.5,-6.2779 6.325,-2.9433 11.5,-5.7296 11.5,-6.1917 0,-0.4621 0.45,-0.562 1,-0.2221 0.55,0.3399 1,0.1149 1,-0.5 0,-0.6149 0.45,-0.8399 1,-0.5 0.55,0.3399 1,0.2074 1,-0.2944 0,-0.5018 5.0216,-3.2678 11.1591,-6.1467 6.1375,-2.8788 11.7988,-5.8739 12.5806,-6.6557 0.7819,-0.7819 1.8353,-1.1659 2.3409,-0.8534 0.5057,0.3125 0.9194,0.1596 0.9194,-0.3399 0,-0.4995 4.6125,-3.0692 10.25,-5.7106 5.6375,-2.6413 10.5806,-5.2967 10.9847,-5.9008 0.4041,-0.6042 0.7416,-0.7289 0.75,-0.2771 0.01,0.4518 0.7266,0.1102 1.5959,-0.7592 0.8694,-0.8693 1.9944,-1.3249 2.5,-1.0124 0.5057,0.3125 0.9194,0.1663 0.9194,-0.325 0,-0.4912 4.1625,-2.86 9.25,-5.2639 5.0875,-2.4038 9.4009,-4.7313 9.5854,-5.172 0.1845,-0.4408 0.747,-0.547 1.25,-0.2361 0.503,0.3109 0.9146,0.062 0.9146,-0.5528 0,-0.6149 0.45,-0.8399 1,-0.5 0.55,0.3399 1,0.2124 1,-0.2833 0,-0.4957 3.5075,-2.5473 7.7944,-4.559 l 7.7944,-3.6577 274.20558,0 274.2056,0 0,136.0607 0,136.0607 -34.1976,40.1893 c -18.8087,22.1041 -42.8318,50.3143 -53.3847,62.6893 -60.88,71.3922 -101.7944,119.5905 -103.6627,122.1175 l -2.1311,2.8825 -189.58128,0 -189.5812,0 -8.6975,-19.25 z M -52.79576,1813.3439 c -1.15184,-1.4753 -4.1431,-8.4794 -16.3735,-38.3389 -4.50559,-11 -9.44396,-22.925 -10.97416,-26.5 -1.53019,-3.575 -6.47799,-15.5 -10.99511,-26.5 -4.51711,-11 -10.37001,-25.175 -13.00644,-31.5 -2.63644,-6.325 -7.53951,-18.1375 -10.89571,-26.25 -12.02676,-29.0706 -18.19362,-43.9707 -24.00512,-58 -3.24661,-7.8375 -9.14716,-22.125 -13.11235,-31.75 -3.96519,-9.625 -8.73388,-21.0093 -10.59708,-25.2984 -1.86321,-4.2892 -3.38765,-8.2267 -3.38765,-8.75 0,-0.5948 32.43529,-0.9516 86.5,-0.9516 l 86.5,0 0,2.5424 c 0,1.3983 2.49201,18.8358 5.5378,38.75 5.94164,38.848 15.99345,104.957 19.59339,128.8624 l 2.20689,14.6547 -2.8031,3.3453 c -2.77187,3.3079 -55.05846,58.165 -73.56748,77.1841 -7.48423,7.6905 -9.8033,9.5466 -10.62038,8.5 z"
         id="path3002"
         inkscape:connector-curvature="0" />
      <path
         style="fill:#25a9df"
         d="m 751.62102,2020.255 c -4.7836,-10.5875 -15.2802,-33.65 -23.3259,-51.25 -8.0457,-17.6 -20.1643,-44.15 -26.9302,-59 -6.7659,-14.85 -19.6005,-42.975 -28.5215,-62.5 -8.9209,-19.525 -20.6204,-45.175 -25.9989,-57 -5.3784,-11.825 -13.3793,-29.375 -17.77967,-39 -13.08975,-28.6313 -40.17044,-87.9168 -43.94559,-96.2064 -1.93026,-4.2386 -3.28066,-8.2886 -3.0009,-9 0.27976,-0.7115 44.09792,-23.9239 97.37366,-51.5832 53.2758,-27.6593 98.8831,-51.3968 101.3496,-52.75 l 4.4846,-2.4604 273.76538,0 273.7655,0 0,136.0607 0,136.0607 -34.1976,40.1893 c -18.8087,22.1041 -42.8318,50.3143 -53.3847,62.6893 -60.88,71.3922 -101.7944,119.5905 -103.6627,122.1175 l -2.1311,2.8825 -189.58128,0 -189.5812,0 -8.6975,-19.25 z"
         id="path3000"
         inkscape:connector-curvature="0" />
    </g>
    <path
       style="fill:#000000"
       d=""
       id="path2996"
       inkscape:connector-curvature="0" />
  </g>
</svg>
